<?xml version="1.0" encoding="UTF-8" standalone="no" ?>
<!DOCTYPE svg PUBLIC "-//W3C//DTD SVG 1.1//EN" "http://www.w3.org/Graphics/SVG/1.1/DTD/svg11.dtd">
<svg xmlns="http://www.w3.org/2000/svg" xmlns:xlink="http://www.w3.org/1999/xlink" version="1.1" width="640" height="480" viewBox="0 0 640 480" xml:space="preserve">
    <desc>Created with Fabric.js 3.6.6</desc>
    <defs>
    </defs>
    <g transform="matrix(1 0 0 1 230 190)"  >
        <g style=""   >
        </g>
    </g>
    <g transform="matrix(0.85 0 0 0.85 312.9 227.4)"  >
        <path style="stroke: currentColor; stroke-width: 12; stroke-dasharray: none; stroke-linecap: round; stroke-dashoffset: 0; stroke-linejoin: round; stroke-miterlimit: 4; fill: currentColor; fill-rule: nonzero; opacity: 1;"  transform=" translate(-330.35, -175.64)" d="m 132.605 6.31311 c 53.547 -12.79999 111.52 -1.91998 158.72 25.75999 c 34.987 21.12 65.44 48.64 97.493 73.7069 c -17.706 12 -35.253 24.16 -53.173 35.84 c -32.747 -24.693 -62.933 -54.8799 -102.56 -68.4799 c -36.373 -12.533 -78.827 -14.4 -113.387 4.64 c -35.4134 18.773 -59.7334 57.3329 -59.6804 97.6529 c -1.066 40.48 22.667 79.734 57.7604 99.414 c 37.814 21.76 86.08 18.88 124.534 0.32 c 47.626 -23.307 80.32 -67.147 109.653 -109.814 c 31.52 -48.96 59.573 -100.0529 90.293 -149.4929 c 6.72 -12.53298 22.507 -19.25298 36 -14.13299 c 12.534 4 17.92 16.95999 23.894 27.46599 c 47.466 85.5999 95.52 170.8269 143.573 256.0539 c 7.52 13.653 18.507 27.84 13.867 44.48 c -3.52 20.533 -30.827 27.573 -46.4 16 c -66.24 -49.067 -132.8 -97.814 -198.934 -147.147 c 16.374 -13.707 34.934 -24.533 52.374 -36.8 c 22.933 17.013 45.866 34.08 68.906 50.933 c -22.026 -40.853 -45.6 -80.8 -67.893 -121.4929 c -42.613 66.0799 -77.387 138.7729 -135.04 193.6529 c -41.387 41.12 -98.453 69.227 -157.813 65.974 c -92.0544 4.213 -175.41438 -78.774 -174.61439 -170.347 c -3.83999 -79.68 55.03999 -155.9999 132.42739 -174.18689 z" stroke-linecap="round" />
    </g>
</svg>
